<mxfile host="www.draw.io" modified="2020-08-13T07:53:53.717Z" agent="5.0 (Windows NT 10.0; Win64; x64) AppleWebKit/537.36 (KHTML, like Gecko) Chrome/83.0.4103.116 Safari/537.36" etag="MYVRlPIxBWcfSDTDghA3" version="13.5.9" type="github">
  <diagram id="ZhMZBGnlJeuAKNid6ibN" name="Page-1">
    <mxGraphModel dx="1408" dy="748" grid="1" gridSize="10" guides="1" tooltips="1" connect="1" arrows="1" fold="1" page="1" pageScale="1" pageWidth="1169" pageHeight="827" math="0" shadow="0">
      <root>
        <mxCell id="0" />
        <mxCell id="1" parent="0" />
        <mxCell id="bJ6HDdSnA9Dkp22Fbirf-7" style="edgeStyle=orthogonalEdgeStyle;rounded=0;orthogonalLoop=1;jettySize=auto;html=1;exitX=1;exitY=0.3333333333333333;exitDx=0;exitDy=0;exitPerimeter=0;entryX=0;entryY=0.3333333333333333;entryDx=0;entryDy=0;entryPerimeter=0;dashed=1;startArrow=classic;startFill=1;" edge="1" parent="1" source="bJ6HDdSnA9Dkp22Fbirf-2" target="bJ6HDdSnA9Dkp22Fbirf-6">
          <mxGeometry relative="1" as="geometry" />
        </mxCell>
        <mxCell id="bJ6HDdSnA9Dkp22Fbirf-2" value="任务机" style="shape=umlActor;verticalLabelPosition=bottom;verticalAlign=top;html=1;outlineConnect=0;" vertex="1" parent="1">
          <mxGeometry x="80" y="150" width="30" height="60" as="geometry" />
        </mxCell>
        <mxCell id="bJ6HDdSnA9Dkp22Fbirf-9" style="edgeStyle=orthogonalEdgeStyle;rounded=1;orthogonalLoop=1;jettySize=auto;html=1;exitX=1;exitY=0.3333333333333333;exitDx=0;exitDy=0;exitPerimeter=0;entryX=0;entryY=0.3333333333333333;entryDx=0;entryDy=0;entryPerimeter=0;dashed=1;startArrow=classic;startFill=1;" edge="1" parent="1" source="bJ6HDdSnA9Dkp22Fbirf-3" target="bJ6HDdSnA9Dkp22Fbirf-4">
          <mxGeometry relative="1" as="geometry" />
        </mxCell>
        <mxCell id="bJ6HDdSnA9Dkp22Fbirf-3" value="中继器" style="shape=umlActor;verticalLabelPosition=bottom;verticalAlign=top;html=1;outlineConnect=0;" vertex="1" parent="1">
          <mxGeometry x="500" y="290" width="30" height="60" as="geometry" />
        </mxCell>
        <mxCell id="bJ6HDdSnA9Dkp22Fbirf-4" value="PAD" style="shape=umlActor;verticalLabelPosition=bottom;verticalAlign=top;html=1;outlineConnect=0;" vertex="1" parent="1">
          <mxGeometry x="610" y="290" width="30" height="60" as="geometry" />
        </mxCell>
        <mxCell id="bJ6HDdSnA9Dkp22Fbirf-8" style="edgeStyle=orthogonalEdgeStyle;rounded=1;orthogonalLoop=1;jettySize=auto;html=1;exitX=1;exitY=0.3333333333333333;exitDx=0;exitDy=0;exitPerimeter=0;entryX=0;entryY=0.3333333333333333;entryDx=0;entryDy=0;entryPerimeter=0;dashed=1;startArrow=classic;startFill=1;" edge="1" parent="1" source="bJ6HDdSnA9Dkp22Fbirf-6" target="bJ6HDdSnA9Dkp22Fbirf-3">
          <mxGeometry relative="1" as="geometry" />
        </mxCell>
        <mxCell id="bJ6HDdSnA9Dkp22Fbirf-6" value="3VS中继飞机" style="shape=umlActor;verticalLabelPosition=bottom;verticalAlign=top;html=1;outlineConnect=0;" vertex="1" parent="1">
          <mxGeometry x="300" y="150" width="30" height="60" as="geometry" />
        </mxCell>
        <mxCell id="bJ6HDdSnA9Dkp22Fbirf-17" style="edgeStyle=orthogonalEdgeStyle;rounded=1;orthogonalLoop=1;jettySize=auto;html=1;exitX=1;exitY=0.3333333333333333;exitDx=0;exitDy=0;exitPerimeter=0;entryX=0;entryY=0.3333333333333333;entryDx=0;entryDy=0;entryPerimeter=0;dashed=1;startArrow=classic;startFill=1;" edge="1" parent="1" source="bJ6HDdSnA9Dkp22Fbirf-11" target="bJ6HDdSnA9Dkp22Fbirf-13">
          <mxGeometry relative="1" as="geometry">
            <Array as="points">
              <mxPoint x="280" y="530" />
              <mxPoint x="280" y="740" />
            </Array>
          </mxGeometry>
        </mxCell>
        <mxCell id="bJ6HDdSnA9Dkp22Fbirf-11" value="任务机" style="shape=umlActor;verticalLabelPosition=bottom;verticalAlign=top;html=1;outlineConnect=0;" vertex="1" parent="1">
          <mxGeometry x="140" y="510" width="30" height="60" as="geometry" />
        </mxCell>
        <mxCell id="bJ6HDdSnA9Dkp22Fbirf-12" style="edgeStyle=orthogonalEdgeStyle;rounded=1;orthogonalLoop=1;jettySize=auto;html=1;exitX=1;exitY=0.3333333333333333;exitDx=0;exitDy=0;exitPerimeter=0;entryX=0;entryY=0.3333333333333333;entryDx=0;entryDy=0;entryPerimeter=0;dashed=1;startArrow=classic;startFill=1;" edge="1" parent="1" source="bJ6HDdSnA9Dkp22Fbirf-13" target="bJ6HDdSnA9Dkp22Fbirf-14">
          <mxGeometry relative="1" as="geometry" />
        </mxCell>
        <mxCell id="bJ6HDdSnA9Dkp22Fbirf-13" value="中继器" style="shape=umlActor;verticalLabelPosition=bottom;verticalAlign=top;html=1;outlineConnect=0;" vertex="1" parent="1">
          <mxGeometry x="470" y="720" width="30" height="60" as="geometry" />
        </mxCell>
        <mxCell id="bJ6HDdSnA9Dkp22Fbirf-14" value="PAD" style="shape=umlActor;verticalLabelPosition=bottom;verticalAlign=top;html=1;outlineConnect=0;" vertex="1" parent="1">
          <mxGeometry x="580" y="720" width="30" height="60" as="geometry" />
        </mxCell>
        <mxCell id="bJ6HDdSnA9Dkp22Fbirf-16" value="3VS中继飞机" style="shape=umlActor;verticalLabelPosition=bottom;verticalAlign=top;html=1;outlineConnect=0;" vertex="1" parent="1">
          <mxGeometry x="360" y="510" width="30" height="60" as="geometry" />
        </mxCell>
        <mxCell id="bJ6HDdSnA9Dkp22Fbirf-18" value="正常使用模式" style="text;html=1;align=center;verticalAlign=middle;resizable=0;points=[];autosize=1;fontStyle=1;fontSize=25;" vertex="1" parent="1">
          <mxGeometry x="200" y="750" width="170" height="40" as="geometry" />
        </mxCell>
        <mxCell id="bJ6HDdSnA9Dkp22Fbirf-19" value="外加中继机模式" style="text;html=1;align=center;verticalAlign=middle;resizable=0;points=[];autosize=1;fontStyle=1;fontSize=23;" vertex="1" parent="1">
          <mxGeometry x="170" y="325" width="180" height="30" as="geometry" />
        </mxCell>
        <mxCell id="bJ6HDdSnA9Dkp22Fbirf-20" value="" style="rounded=1;whiteSpace=wrap;html=1;" vertex="1" parent="1">
          <mxGeometry x="810" y="250" width="260" height="380" as="geometry" />
        </mxCell>
        <mxCell id="bJ6HDdSnA9Dkp22Fbirf-37" style="edgeStyle=orthogonalEdgeStyle;rounded=1;orthogonalLoop=1;jettySize=auto;html=1;exitX=0.5;exitY=1;exitDx=0;exitDy=0;entryX=0;entryY=0.5;entryDx=0;entryDy=0;dashed=1;startArrow=classic;startFill=1;" edge="1" parent="1" source="bJ6HDdSnA9Dkp22Fbirf-21" target="bJ6HDdSnA9Dkp22Fbirf-36">
          <mxGeometry relative="1" as="geometry" />
        </mxCell>
        <mxCell id="bJ6HDdSnA9Dkp22Fbirf-38" style="edgeStyle=orthogonalEdgeStyle;rounded=1;orthogonalLoop=1;jettySize=auto;html=1;exitX=0.5;exitY=0;exitDx=0;exitDy=0;entryX=0;entryY=0.5;entryDx=0;entryDy=0;dashed=1;startArrow=classic;startFill=1;" edge="1" parent="1" source="bJ6HDdSnA9Dkp22Fbirf-21" target="bJ6HDdSnA9Dkp22Fbirf-35">
          <mxGeometry relative="1" as="geometry" />
        </mxCell>
        <mxCell id="bJ6HDdSnA9Dkp22Fbirf-21" value="双工器" style="rounded=1;whiteSpace=wrap;html=1;" vertex="1" parent="1">
          <mxGeometry x="810" y="415" width="80" height="50" as="geometry" />
        </mxCell>
        <mxCell id="bJ6HDdSnA9Dkp22Fbirf-32" style="edgeStyle=orthogonalEdgeStyle;rounded=1;orthogonalLoop=1;jettySize=auto;html=1;exitX=1;exitY=0.5;exitDx=0;exitDy=0;entryX=0;entryY=0.5;entryDx=0;entryDy=0;dashed=1;startArrow=classic;startFill=1;" edge="1" parent="1" source="bJ6HDdSnA9Dkp22Fbirf-22" target="bJ6HDdSnA9Dkp22Fbirf-28">
          <mxGeometry relative="1" as="geometry" />
        </mxCell>
        <mxCell id="bJ6HDdSnA9Dkp22Fbirf-22" value="双工器" style="rounded=1;whiteSpace=wrap;html=1;" vertex="1" parent="1">
          <mxGeometry x="990" y="414" width="80" height="50" as="geometry" />
        </mxCell>
        <mxCell id="bJ6HDdSnA9Dkp22Fbirf-28" value="" style="triangle;whiteSpace=wrap;html=1;" vertex="1" parent="1">
          <mxGeometry x="1120" y="399" width="60" height="80" as="geometry" />
        </mxCell>
        <mxCell id="bJ6HDdSnA9Dkp22Fbirf-31" style="edgeStyle=orthogonalEdgeStyle;rounded=1;orthogonalLoop=1;jettySize=auto;html=1;exitX=0;exitY=0.5;exitDx=0;exitDy=0;entryX=0;entryY=0.5;entryDx=0;entryDy=0;dashed=1;startArrow=classic;startFill=1;" edge="1" parent="1" source="bJ6HDdSnA9Dkp22Fbirf-30" target="bJ6HDdSnA9Dkp22Fbirf-21">
          <mxGeometry relative="1" as="geometry" />
        </mxCell>
        <mxCell id="bJ6HDdSnA9Dkp22Fbirf-30" value="" style="triangle;whiteSpace=wrap;html=1;rotation=-180;" vertex="1" parent="1">
          <mxGeometry x="710" y="400" width="60" height="80" as="geometry" />
        </mxCell>
        <mxCell id="bJ6HDdSnA9Dkp22Fbirf-33" value="小翼天线" style="text;html=1;align=center;verticalAlign=middle;resizable=0;points=[];autosize=1;" vertex="1" parent="1">
          <mxGeometry x="1120" y="380" width="60" height="20" as="geometry" />
        </mxCell>
        <mxCell id="bJ6HDdSnA9Dkp22Fbirf-34" value="小翼天线" style="text;html=1;align=center;verticalAlign=middle;resizable=0;points=[];autosize=1;" vertex="1" parent="1">
          <mxGeometry x="720" y="379" width="60" height="20" as="geometry" />
        </mxCell>
        <mxCell id="bJ6HDdSnA9Dkp22Fbirf-39" style="edgeStyle=orthogonalEdgeStyle;rounded=1;orthogonalLoop=1;jettySize=auto;html=1;exitX=1;exitY=0.5;exitDx=0;exitDy=0;entryX=0.5;entryY=0;entryDx=0;entryDy=0;dashed=1;startArrow=classic;startFill=1;" edge="1" parent="1" source="bJ6HDdSnA9Dkp22Fbirf-35" target="bJ6HDdSnA9Dkp22Fbirf-22">
          <mxGeometry relative="1" as="geometry" />
        </mxCell>
        <mxCell id="bJ6HDdSnA9Dkp22Fbirf-35" value="1390±10" style="rounded=1;whiteSpace=wrap;html=1;" vertex="1" parent="1">
          <mxGeometry x="880" y="319" width="120" height="60" as="geometry" />
        </mxCell>
        <mxCell id="bJ6HDdSnA9Dkp22Fbirf-40" style="edgeStyle=orthogonalEdgeStyle;rounded=1;orthogonalLoop=1;jettySize=auto;html=1;exitX=1;exitY=0.5;exitDx=0;exitDy=0;entryX=0.5;entryY=1;entryDx=0;entryDy=0;dashed=1;startArrow=classic;startFill=1;" edge="1" parent="1" source="bJ6HDdSnA9Dkp22Fbirf-36" target="bJ6HDdSnA9Dkp22Fbirf-22">
          <mxGeometry relative="1" as="geometry" />
        </mxCell>
        <mxCell id="bJ6HDdSnA9Dkp22Fbirf-36" value="1330±10" style="rounded=1;whiteSpace=wrap;html=1;" vertex="1" parent="1">
          <mxGeometry x="880" y="500" width="120" height="60" as="geometry" />
        </mxCell>
        <mxCell id="bJ6HDdSnA9Dkp22Fbirf-41" value="中继机" style="text;html=1;align=center;verticalAlign=middle;resizable=0;points=[];autosize=1;fontSize=25;fontStyle=1" vertex="1" parent="1">
          <mxGeometry x="895" y="190" width="90" height="40" as="geometry" />
        </mxCell>
      </root>
    </mxGraphModel>
  </diagram>
</mxfile>
